<svg width="1000" height="1000" viewBox="0 0 1000 1000" fill="none" xmlns="http://www.w3.org/2000/svg">
<rect width="1000" height="1000" fill="white"/>
<path d="M438.708 582.792C438.708 610.318 438.347 629.835 437.626 641.342C436.964 652.737 434.8 663.172 431.132 672.648C427.524 682.125 422.623 689.401 416.429 694.478C410.236 699.555 403.02 702.093 394.781 702.093C386.964 702.093 379.929 699.724 373.675 694.986C367.481 690.135 362.49 682.914 358.702 673.325C354.914 663.736 352.659 653.301 351.937 642.019C351.216 630.738 350.855 610.995 350.855 582.792V535.917C350.855 508.39 351.185 488.93 351.847 477.535C352.568 466.028 354.733 455.537 358.341 446.06C362.009 436.584 366.94 429.307 373.134 424.231C379.327 419.154 386.543 416.616 394.781 416.616C402.599 416.616 409.604 419.041 415.798 423.892C422.052 428.63 427.073 435.794 430.861 445.383C434.649 454.973 436.904 465.408 437.626 476.689C438.347 487.971 438.708 507.713 438.708 535.917V582.792ZM400.735 492.765C400.735 480.017 400.344 471.895 399.562 468.398C398.84 464.787 397.307 462.982 394.962 462.982C392.978 462.982 391.444 464.449 390.362 467.382C389.339 470.203 388.828 478.664 388.828 492.765V620.697C388.828 636.604 389.159 646.419 389.821 650.142C390.542 653.865 392.166 655.726 394.691 655.726C397.277 655.726 398.931 653.583 399.652 649.296C400.374 645.009 400.735 634.799 400.735 618.667V492.765Z" fill="#2E7D32"/>
<path d="M634.235 389.584L612.234 696.339H550.35C544.703 641.453 539.722 579.061 535.408 509.165C533.448 539.037 528.859 601.428 521.643 696.339H460.112L437.994 389.584H486.113L491.172 463.696L496.348 583.991C498.152 521.747 502.702 490.675 509.996 389.584H561.527C562.233 400.031 564.037 388.723 566.939 456.854L572.351 592.599C575.096 506.222 579.684 472.282 586.116 389.584H634.235Z" fill="#2E7D32"/>
<path d="M663.653 558.762H629.468V543.701C629.468 526.328 630.52 512.959 632.625 503.596C634.789 494.119 639.089 485.771 645.523 478.551C651.957 471.331 660.316 467.721 670.598 467.721C682.925 467.721 692.216 471.838 698.47 480.074C704.723 488.196 708.482 498.237 709.744 510.195C711.007 522.041 711.639 546.522 711.639 583.638V696.339H676.19V676.371C673.966 684.381 671.079 690.417 667.531 694.478C664.044 698.427 659.865 700.401 654.994 700.401C648.62 700.401 642.757 697.073 637.405 690.417C632.113 683.648 629.468 668.925 629.468 646.25V627.805C629.468 610.995 630.881 599.544 633.707 593.452C636.533 587.361 643.539 580.253 654.723 572.131C666.69 563.331 673.094 557.408 673.936 554.362C674.777 551.316 675.198 545.111 675.198 535.748C675.198 524.015 674.717 516.4 673.755 512.903C672.853 509.293 671.32 507.488 669.155 507.488C666.69 507.488 665.156 509.011 664.555 512.057C663.954 514.99 663.653 522.718 663.653 535.24V558.762ZM675.198 589.56C669.365 597.57 665.968 604.283 665.006 609.698C664.104 615.113 663.653 622.897 663.653 633.05C663.653 644.67 664.044 652.173 664.826 655.557C665.667 658.941 667.291 660.634 669.696 660.634C671.981 660.634 673.454 659.336 674.116 656.742C674.838 654.034 675.198 647.039 675.198 635.758V589.56Z" fill="#2E7D32"/>
<path d="M755.212 441.83V477.197H765.043V512.734H755.212V632.881C755.212 647.66 755.603 655.895 756.384 657.588C757.226 659.28 760.624 660.126 766.577 660.126V696.339H751.874C743.576 696.339 737.653 695.719 734.105 694.478C730.557 693.124 727.431 690.135 724.725 685.509C722.019 680.771 720.335 675.412 719.674 669.433C719.012 663.341 718.681 649.127 718.681 626.789V512.734H710.834V477.197H718.681V441.83H755.212Z" fill="#2E7D32"/>
<path d="M846.229 556.562H811.864V530.671C811.864 521.646 811.473 515.554 810.691 512.395C809.909 509.124 808.466 507.488 806.362 507.488C804.257 507.488 802.844 508.898 802.122 511.718C801.401 514.539 801.04 520.856 801.04 530.671V636.604C801.04 644.614 801.581 650.65 802.664 654.711C803.746 658.659 805.339 660.634 807.444 660.634C809.909 660.634 811.563 658.547 812.405 654.372C813.307 650.198 813.758 642.301 813.758 630.681V603.944H846.229C846.169 621.882 845.809 635.363 845.147 644.388C844.546 653.301 842.531 662.495 839.104 671.971C835.736 681.335 831.317 688.442 825.845 693.293C820.372 698.032 813.608 700.401 805.55 700.401C795.267 700.401 787.119 697.129 781.106 690.586C775.093 683.93 770.823 674.679 768.298 662.833C765.832 650.875 764.6 633.953 764.6 612.067V548.27C764.6 529.205 765.622 514.821 767.666 505.119C769.711 495.417 774.071 486.786 780.745 479.228C787.42 471.556 795.538 467.721 805.099 467.721C814.6 467.721 822.718 471.5 829.453 479.059C836.187 486.617 840.667 496.15 842.892 507.657C845.117 519.164 846.229 535.466 846.229 556.562Z" fill="#2E7D32"/>
<path d="M886.195 422.369V483.966C889.322 478.551 892.689 474.49 896.297 471.782C899.965 469.074 903.874 467.721 908.023 467.721C914.397 467.721 919.809 470.767 924.258 476.859C928.768 482.951 931.504 490.002 932.467 498.011C933.489 505.908 934 520.405 934 541.501V696.339H897.56V538.286C897.56 525.2 897.199 516.795 896.477 513.072C895.816 509.349 894.282 507.488 891.877 507.488C889.652 507.488 888.149 509.406 887.367 513.241C886.586 517.077 886.195 524.692 886.195 536.086V696.339H849.754V422.369H886.195Z" fill="#2E7D32"/>
<path fill-rule="evenodd" clip-rule="evenodd" d="M307.733 541.84H345.706V515.78C345.706 490.171 344.564 471.331 342.279 459.26C339.994 447.076 335.213 436.922 327.937 428.8C320.661 420.677 311.431 416.616 300.246 416.616C292.008 416.616 284.702 419.267 278.328 424.569C272.014 429.759 267.053 436.922 263.445 446.06C259.897 455.198 257.762 464.731 257.041 474.659C256.686 479.491 256.418 485.527 256.237 492.765L293.932 595.271V496.319C293.932 482.443 294.353 473.418 295.195 469.244C296.037 465.069 298.021 462.982 301.148 462.982C303.914 462.982 305.688 464.731 306.47 468.228C307.312 471.613 307.733 480.243 307.733 494.119V541.84ZM307.623 632.503L328.298 688.724C335.634 679.812 340.354 669.433 342.459 657.588C344.624 645.742 345.706 625.661 345.706 597.345V586.684H307.733V621.036C307.733 625.3 307.696 629.122 307.623 632.503Z" fill="#2E7D32"/>
<path fill-rule="evenodd" clip-rule="evenodd" d="M329.066 702.45H310.187L274.788 588.937H178.033V571.29H270.56L250.529 511.672H178.033V487.824H212.267H229.384H237.943H242.222L217.778 416.283H226.867L329.066 702.45ZM226.867 416.283H217.778H141.03L140.275 487.824V511.672L140.511 571.29L141.03 588.937V702.45H27L73.9565 571.29L95.3004 511.672L103.838 487.824L129.451 416.283V377.173H141.03V371.768H133.982L141.03 361.434H111.956L178.033 298L244.11 361.434H215.036L221.077 371.768H215.036V377.173H226.867V416.283ZM103.838 588.937L107.127 571.29H81.6898L75.9664 588.937H103.838ZM123.343 487.824L117.62 511.672H102.993L111.578 487.824H123.343Z" fill="#2E7D32"/>
<path d="M315.099 696.938C307.866 701.456 293.889 702.137 293.889 702.137C293.889 702.137 287.241 690.22 287.097 681.876C286.748 661.693 324.164 645.852 324.164 645.852C324.164 645.852 332.285 686.205 315.099 696.938Z" fill="#2E7D32"/>
<path d="M293.889 702.137C293.889 702.137 307.866 701.456 315.099 696.938C332.285 686.205 324.164 645.852 324.164 645.852C324.164 645.852 286.748 661.693 287.097 681.876C287.241 690.22 293.889 702.137 293.889 702.137ZM311.372 669.635L306.271 679.119L301.27 688.416L293.889 702.137M301.27 688.416L311.451 690.296M306.271 679.119L300.971 672.192M311.372 669.635L315.353 669.618M311.372 669.635L314.073 664.614" stroke="white" stroke-width="4" stroke-linecap="round"/>
<path d="M233.285 695.622C240.916 700.936 256.1 702.441 256.1 702.441C256.1 702.441 263.99 689.825 264.602 680.745C266.082 658.784 226.197 639.493 226.197 639.493C226.197 639.493 215.154 682.996 233.285 695.622Z" fill="#2E7D32"/>
<path d="M256.1 702.441C256.1 702.441 240.916 700.936 233.285 695.622C215.154 682.996 226.197 639.493 226.197 639.493C226.197 639.493 266.082 658.784 264.602 680.745C263.99 689.825 256.1 702.441 256.1 702.441ZM256.1 702.441L248.81 687.095M248.81 687.095L237.62 688.588M248.81 687.095L243.871 676.697M243.871 676.697L250.02 669.442M243.871 676.697L238.832 666.091M238.832 666.091L234.498 665.856M238.832 666.091L236.165 660.476" stroke="white" stroke-width="4" stroke-linecap="round"/>
<path d="M251.987 681.922C258.375 692.432 275.936 702.373 275.936 702.373C275.936 702.373 292.227 691.333 297.824 680.679C311.36 654.907 273.436 610.24 273.436 610.24C273.436 610.24 236.81 656.953 251.987 681.922Z" fill="#2E7D32"/>
<path d="M275.936 702.373C275.936 702.373 258.375 692.432 251.987 681.922C236.81 656.953 273.436 610.24 273.436 610.24C273.436 610.24 311.36 654.907 297.824 680.679C292.227 691.333 275.936 702.373 275.936 702.373ZM275.936 702.373L275.326 679.913M275.326 679.913L260.993 675.733M275.326 679.913L274.913 664.694M274.913 664.694L286.232 659.208M274.913 664.694L274.492 649.17M274.492 649.17L269.376 646.567M274.492 649.17L274.269 640.951" stroke="white" stroke-width="4" stroke-linecap="round"/>
<path d="M931.437 390L947.238 465H926.077L925.046 453.3H917.633V465C909.505 458.901 904.506 458.88 895 465V390H931.437ZM924.457 441.761C923.41 434.389 917.633 407 917.633 407V441.761H924.457Z" fill="#2E7D32"/>
<path d="M957.41 390L973 465H952.331L936.741 390H957.41Z" fill="#2E7D32"/>
</svg>
