<svg width="1000" height="1000" viewBox="0 0 1000 1000" fill="none" xmlns="http://www.w3.org/2000/svg">
<rect width="1000" height="1000" fill="white"/>
<path fill-rule="evenodd" clip-rule="evenodd" d="M682 818H652.312L596.648 639.5H444.5V611.75H590L558.5 518H444.5V480.5H498.333H525.25H538.708H545.438L507 368H521.292L682 818ZM521.292 368H507H386.312L385.125 480.5V518L385.496 611.75L386.312 639.5V818H207L280.839 611.75L314.403 518L327.828 480.5L368.104 368V306.5H386.312V298H375.229L386.312 281.75H340.594L444.5 182L548.406 281.75H502.688L512.188 298H502.688V306.5H521.292V368ZM327.828 639.5L333 611.75H293L284 639.5H327.828ZM358.5 480.5L349.5 518H326.5L340 480.5H358.5Z" fill="#2E7D32"/>
<path fill-rule="evenodd" clip-rule="evenodd" d="M770.24 817.756L792.241 511H744.122C742.397 533.183 740.804 551.857 739.344 568.977C735.361 615.679 732.366 650.808 730.357 714.015L724.945 578.27C722.814 528.245 721.275 521.047 720.328 516.619C719.986 515.016 719.721 513.776 719.533 511H668.002C665.328 548.055 663.024 575.702 661.087 598.924C657.742 639.058 655.497 665.978 654.355 705.407L649.178 585.112L644.119 511H596L601.155 582.5L680.656 804.5C687.294 717.012 691.547 659.039 693.415 630.582C697.728 700.478 702.709 762.869 708.356 817.756H770.24Z" fill="#2E7D32"/>
<path d="M660.038 809.332C648.663 816.436 626.685 817.509 626.685 817.509C626.685 817.509 616.231 798.768 616.004 785.647C615.455 753.91 674.293 729 674.293 729C674.293 729 687.062 792.454 660.038 809.332Z" fill="#2E7D32"/>
<path d="M626.685 817.509C626.685 817.509 648.663 816.436 660.038 809.332C687.062 792.454 674.293 729 674.293 729C674.293 729 615.455 753.91 616.004 785.647C616.231 798.768 626.685 817.509 626.685 817.509ZM626.685 817.509L638.291 795.932M638.291 795.932L654.301 798.888M658.424 758.503L654.177 766.398L646.155 781.311L638.291 795.932M646.155 781.311L637.821 770.419M654.177 766.398L660.436 766.372" stroke="white" stroke-width="4" stroke-linecap="round"/>
<path d="M531.383 807.263C543.383 815.62 567.26 817.986 567.26 817.986C567.26 817.986 579.667 798.146 580.629 783.869C582.957 749.335 520.237 719 520.237 719C520.237 719 502.872 787.409 531.383 807.263Z" fill="#2E7D32"/>
<path d="M567.26 817.986C567.26 817.986 543.383 815.62 531.383 807.263C502.872 787.409 520.237 719 520.237 719C520.237 719 582.957 749.335 580.629 783.869C579.667 798.146 567.26 817.986 567.26 817.986ZM567.26 817.986L555.797 793.855M555.797 793.855L538.2 796.202M555.797 793.855L548.029 777.503M548.029 777.503L557.7 766.095M548.029 777.503L540.106 760.825M540.106 760.825L533.291 760.455M540.106 760.825L535.911 751.995" stroke="white" stroke-width="4" stroke-linecap="round"/>
<path d="M560.793 785.72C570.838 802.247 598.453 817.879 598.453 817.879C598.453 817.879 624.071 800.519 632.872 783.765C654.158 743.239 594.522 673 594.522 673C594.522 673 536.927 746.456 560.793 785.72Z" fill="#2E7D32"/>
<path d="M598.453 817.879C598.453 817.879 570.838 802.247 560.793 785.72C536.927 746.456 594.522 673 594.522 673C594.522 673 654.158 743.239 632.872 783.765C624.071 800.519 598.453 817.879 598.453 817.879ZM598.453 817.879L597.494 782.56M597.494 782.56L574.955 775.987M597.494 782.56L596.845 758.628M596.845 758.628L614.644 750.002M596.845 758.628L596.183 734.217M596.183 734.217L588.137 730.124M596.183 734.217L595.832 721.293" stroke="white" stroke-width="4" stroke-linecap="round"/>
<path d="M815.227 738.5L830.936 818H809.898L808.873 805.598H801.502V818H779L785.5 738.5H815.227ZM808.287 793.366C807.246 785.553 801.502 756 801.502 756V793.366H808.287Z" fill="#2E7D32"/>
<path d="M841.05 738.5L856.55 818H836L820.5 738.5H841.05Z" fill="#2E7D32"/>
</svg>
